<svg width="37" height="37" viewBox="0 0 37 37" fill="none" xmlns="http://www.w3.org/2000/svg">
<rect x="0.940002" y="0.5" width="36" height="36" rx="18" fill="#FFEC00"/>
<g clip-path="url(#clip0_1_5)">
<path d="M27.6588 18.5C27.6588 13.6836 23.7564 9.78125 18.94 9.78125C14.1236 9.78125 10.2213 13.6836 10.2213 18.5C10.2213 22.8516 13.4096 26.4587 17.5777 27.1133V21.0204H15.3629V18.5H17.5777V16.5791C17.5777 14.3941 18.8785 13.1872 20.8708 13.1872C21.8249 13.1872 22.8227 13.3573 22.8227 13.3573V15.5019H21.723C20.6402 15.5019 20.3023 16.1741 20.3023 16.8635V18.5H22.7204L22.3336 21.0204H20.3023V27.1133C24.4704 26.4587 27.6588 22.8516 27.6588 18.5Z" fill="black"/>
</g>
<defs>
<clipPath id="clip0_1_5">
<rect width="18" height="18" fill="white" transform="translate(9.94 9.5)"/>
</clipPath>
</defs>
</svg>
