<svg width="37" height="37" viewBox="0 0 37 37" fill="none" xmlns="http://www.w3.org/2000/svg">
<rect x="0.940002" y="0.5" width="36" height="36" rx="18" fill="#FFEC00"/>
<path d="M18.9435 14.457C16.7076 14.457 14.9041 16.2606 14.9041 18.4965C14.9041 20.7324 16.7076 22.5359 18.9435 22.5359C21.1795 22.5359 22.983 20.7324 22.983 18.4965C22.983 16.2606 21.1795 14.457 18.9435 14.457ZM18.9435 21.1227C17.4986 21.1227 16.3173 19.9449 16.3173 18.4965C16.3173 17.048 17.4951 15.8703 18.9435 15.8703C20.392 15.8703 21.5697 17.048 21.5697 18.4965C21.5697 19.9449 20.3884 21.1227 18.9435 21.1227ZM24.0904 14.2918C24.0904 14.8156 23.6685 15.234 23.1482 15.234C22.6244 15.234 22.206 14.8121 22.206 14.2918C22.206 13.7715 22.6279 13.3496 23.1482 13.3496C23.6685 13.3496 24.0904 13.7715 24.0904 14.2918ZM26.7658 15.2481C26.706 13.9859 26.4177 12.868 25.4931 11.9469C24.572 11.0258 23.4541 10.7375 22.192 10.6742C20.8912 10.6004 16.9923 10.6004 15.6916 10.6742C14.433 10.734 13.315 11.0223 12.3904 11.9434C11.4658 12.8645 11.181 13.9824 11.1177 15.2445C11.0439 16.5453 11.0439 20.4441 11.1177 21.7449C11.1775 23.007 11.4658 24.125 12.3904 25.0461C13.315 25.9672 14.4295 26.2555 15.6916 26.3188C16.9923 26.3926 20.8912 26.3926 22.192 26.3188C23.4541 26.259 24.572 25.9707 25.4931 25.0461C26.4142 24.125 26.7025 23.007 26.7658 21.7449C26.8396 20.4441 26.8396 16.5488 26.7658 15.2481ZM25.0853 23.1406C24.8111 23.8297 24.2802 24.3605 23.5877 24.6383C22.5505 25.0496 20.0896 24.9547 18.9435 24.9547C17.7974 24.9547 15.333 25.0461 14.2994 24.6383C13.6103 24.3641 13.0795 23.8332 12.8017 23.1406C12.3904 22.1035 12.4853 19.6426 12.4853 18.4965C12.4853 17.3504 12.3939 14.8859 12.8017 13.8523C13.0759 13.1633 13.6068 12.6324 14.2994 12.3547C15.3365 11.9434 17.7974 12.0383 18.9435 12.0383C20.0896 12.0383 22.5541 11.9469 23.5877 12.3547C24.2767 12.6289 24.8076 13.1598 25.0853 13.8523C25.4966 14.8895 25.4017 17.3504 25.4017 18.4965C25.4017 19.6426 25.4966 22.107 25.0853 23.1406Z" fill="black"/>
</svg>
