<svg width="37" height="37" viewBox="0 0 37 37" fill="none" xmlns="http://www.w3.org/2000/svg">
<rect x="0.940002" y="0.5" width="36" height="36" rx="18" fill="#FFEC00"/>
<g clip-path="url(#clip0_1_11)">
<path d="M27.1167 14.3776C26.9204 13.6385 26.3421 13.0565 25.6078 12.8589C24.2769 12.5 18.94 12.5 18.94 12.5C18.94 12.5 13.6031 12.5 12.2722 12.8589C11.5379 13.0565 10.9596 13.6385 10.7633 14.3776C10.4067 15.7172 10.4067 18.5121 10.4067 18.5121C10.4067 18.5121 10.4067 21.3071 10.7633 22.6467C10.9596 23.3857 11.5379 23.9435 12.2722 24.1411C13.6031 24.5 18.94 24.5 18.94 24.5C18.94 24.5 24.2769 24.5 25.6078 24.1411C26.3421 23.9435 26.9204 23.3857 27.1167 22.6467C27.4734 21.3071 27.4734 18.5121 27.4734 18.5121C27.4734 18.5121 27.4734 15.7172 27.1167 14.3776ZM17.1945 21.0497V15.9745L21.6551 18.5122L17.1945 21.0497Z" fill="black"/>
</g>
<defs>
<clipPath id="clip0_1_11">
<rect width="18" height="18" fill="white" transform="translate(9.94 9.5)"/>
</clipPath>
</defs>
</svg>
